<?xml version="1.0" standalone="no"?>
<!DOCTYPE svg PUBLIC "-//W3C//DTD SVG 20010904//EN"
 "http://www.w3.org/TR/2001/REC-SVG-20010904/DTD/svg10.dtd">
<svg version="1.0" xmlns="http://www.w3.org/2000/svg"
 width="288.000000pt" height="288.000000pt" viewBox="0 0 288.000000 288.000000"
 preserveAspectRatio="xMidYMid meet">
<metadata>
Created by potrace 1.11, written by Peter Selinger 2001-2013
</metadata>
<g transform="translate(0.000000,288.000000) scale(0.100000,-0.100000)"
fill="#000000" stroke="none">
<path d="M1962 1819 c-85 -43 -132 -131 -132 -250 0 -125 47 -215 134 -255 84
-39 180 -21 240 43 22 24 56 100 56 125 0 4 -24 8 -54 8 -51 0 -54 -2 -67 -31
-23 -57 -97 -70 -147 -26 -65 59 -49 252 24 285 47 22 80 15 113 -25 28 -34
35 -37 82 -38 l50 -1 -6 36 c-9 50 -40 95 -82 121 -52 32 -154 36 -211 8z"/>
<path d="M2461 1829 c-100 -40 -160 -155 -148 -287 10 -101 25 -138 78 -190
88 -86 257 -73 332 25 65 86 74 237 21 348 -21 44 -77 92 -124 105 -44 12
-127 12 -159 -1z m147 -124 c35 -29 51 -83 46 -159 -5 -97 -55 -153 -126 -141
-64 12 -91 60 -92 160 0 79 21 136 57 153 39 19 83 14 115 -13z"/>
<path d="M158 1823 c-3 -7 -3 -478 1 -508 0 -5 16 -9 33 -8 18 1 44 2 58 2 26
1 26 1 25 94 l0 92 57 3 c50 3 59 0 71 -20 8 -13 17 -54 20 -92 2 -37 9 -71
15 -75 12 -7 111 -6 119 2 3 3 1 12 -3 19 -10 16 -12 26 -18 106 -5 63 -26
112 -48 112 -6 0 1 11 16 25 69 64 61 190 -17 232 -25 14 -63 18 -178 21 -81
2 -149 0 -151 -5z m250 -112 c26 -14 31 -71 7 -91 -14 -12 -107 -21 -130 -13
-12 4 -14 92 -3 109 9 14 97 11 126 -5z"/>
<path d="M633 1570 c0 -143 2 -260 6 -261 39 -5 83 -4 93 2 9 5 12 59 11 191
0 101 1 174 3 163 3 -11 9 -38 15 -60 6 -22 11 -47 13 -55 1 -8 13 -66 26
-127 25 -121 21 -115 85 -115 65 0 58 -13 101 185 l39 182 5 -185 5 -185 30 1
c17 1 40 2 53 3 l22 1 0 260 0 260 -83 0 -83 0 -34 -142 c-19 -79 -36 -150
-37 -158 -2 -8 -5 -22 -8 -30 -2 -8 -4 -22 -5 -30 -1 -12 -52 179 -65 245 -3
11 -10 41 -16 68 l-11 47 -83 0 -83 0 1 -260z"/>
<path d="M1186 1813 c2 -10 27 -110 55 -223 28 -113 53 -216 55 -230 10 -55
11 -56 69 -54 31 1 57 3 59 5 2 2 6 18 9 34 18 111 39 228 49 274 l12 54 28
-154 c15 -85 29 -163 31 -174 5 -35 14 -40 67 -39 28 1 53 4 54 5 4 6 126 497
126 509 0 6 -26 10 -58 10 l-59 0 -17 -97 c-9 -54 -19 -107 -21 -118 -1 -11
-6 -44 -10 -73 -8 -54 -24 -81 -26 -40 0 13 -2 32 -4 43 -2 11 -7 40 -11 65
-4 25 -9 52 -11 60 -4 19 -23 142 -23 153 0 4 -29 7 -64 7 -62 0 -65 -1 -70
-27 -9 -41 -15 -73 -21 -113 -3 -20 -7 -45 -9 -57 -3 -12 -8 -43 -12 -70 -5
-26 -9 -51 -10 -55 -1 -5 -2 -16 -4 -25 -2 -20 -38 162 -58 297 l-7 45 -62 3
c-55 3 -61 1 -57 -15z"/>
<path d="M1119 1218 c-1 -17 -1 -148 0 -171 1 -13 8 -17 31 -15 25 2 30 7 31
28 1 29 1 152 0 163 -2 12 -61 8 -62 -5z"/>
<path d="M1237 1223 c-2 -5 -3 -48 -3 -98 l1 -90 33 -3 32 -3 -1 50 c-1 28 0
53 2 56 3 2 23 -20 46 -50 36 -47 46 -53 78 -53 l36 0 -3 97 -3 96 -30 0 c-30
0 -30 0 -29 -57 0 -32 0 -58 -1 -58 0 0 -21 27 -45 60 -38 51 -50 60 -77 60
-17 0 -34 -3 -36 -7z"/>
<path d="M1556 1215 c-40 -21 -55 -44 -56 -85 0 -41 36 -86 76 -96 51 -13 117
2 143 33 l25 28 -32 3 c-19 2 -38 -3 -48 -12 -36 -36 -94 -9 -94 44 0 52 51
77 95 46 11 -7 32 -14 47 -14 24 0 25 3 16 23 -20 44 -113 60 -172 30z"/>
</g>
</svg>
